<svg viewBox="0 0 73 100" xmlns="http://www.w3.org/2000/svg">
  <title>Bag Icon</title>
  <g id="Bag Icon">
    <g>
      <path
        fill="#BE5A07"
        d="M37.9722222,10.4583333 C39.1666667,10.8472222 40.8194444,11.6111111 44.2916667,10.1527778 C44.2916667,13.6388889 44.2777778,21.7083333 44.2638889,25.7638889 C44.25,30.1111111 44.5694444,36.6944444 43.4166667,41.4583333 C46.5138889,41.8472222 48.6111111,45.0833333 51.9027778,43.8055556 C53.0555556,43.3472222 55.4027778,41.3333333 56.6111111,41.0833333 C59.3888889,40.5 62.3055556,43.2638889 64.9027778,42.1111111 C67.8888889,40.7777778 69.25,39.5416667 68.3055556,36.4166667 C64.3611111,27.7916667 59.5555556,18.9444444 59.5555556,18.9444444 L59.6527778,18.9166667 C62.8472222,18.0972222 63.4722222,13.9444444 59.7361111,11.7222222 L62.4166667,9.25 L58.5,7.65277778 L59.9583333,2.30555556 L51.5555556,5.63888889 C51.5694444,5.63888889 51.5833333,5.625 51.5833333,5.625 C51.5833333,5.625 49.4583333,1.18055556 46.2222222,1.15277778 C43.5,1.125 42.2083333,3.09722222 42.2083333,3.09722222 C42.2083333,3.09722222 41.4861111,1.06944444 39.6111111,0.513888889 C37.75,-0.0416666667 34.7083333,1.04166667 34.3194444,4.43055556 C33.8888889,8.18055556 36.9583333,10.1388889 37.9722222,10.4583333 Z M52.3055556,8.83333333 C53.1666667,8.38888889 54.2638889,8.81944444 54.75,9.77777778 C55.2361111,10.7361111 54.9444444,11.875 54.0833333,12.3194444 C53.2222222,12.7638889 52.125,12.3333333 51.6388889,11.375 C51.1527778,10.4027778 51.4444444,9.26388889 52.3055556,8.83333333 Z"
        id="Shape"
      />
      <path
        fill="#BE5A07"
        d="M16.8194444,37.2222222 C18.5833333,38.625 19.2777778,40.5694444 19.4305556,42.6944444 C19.4722222,43.2222222 19.7777778,43.6805556 20.25,43.9166667 C21.7083333,44.6388889 23.1527778,45.1666667 24.0833333,45.2083333 C26.2916667,45.3055556 28,42.875 30,43.1388889 C30.0694444,42.1111111 30.2222222,40.9722222 30.4722222,39.7361111 C31.7916667,33.125 32.9166667,26.5416667 27.3611111,21.625 C21.8194444,16.7222222 11.8333333,16.1805556 0.305555556,30.0833333 L7.83333333,39.1805556 C7.81944444,39.1666667 11.8472222,33.25 16.8194444,37.2222222 Z"
        id="Path"
      />
    </g>
    <g transform="translate(12.500000, 40.277778)">
      <path
        fill="#BE5A07"
        d="M59.4444444,46.8333333 C59.5972222,44.9583333 59.7916667,43.0972222 59.9722222,41.2222222 C60.5,35.8194444 60.2222222,30.3055556 60.125,24.8888889 C60.0833333,22.9166667 60.3888889,20.9722222 60.3888889,19.0972222 C60.375,14.3472222 60.4305556,10.0833333 60.4722222,7.05555556 C60.4861111,5.5 60.2777778,2.94444444 59.1666667,1.68055556 C57.625,-0.0694444444 55.7638889,1.94444444 55.0277778,3.45833333 C54.4166667,4.68055556 53.6666667,6.13888889 52.2083333,6.33333333 C50.2222222,6.59722222 48.9861111,4.375 47.125,3.69444444 C45.1666667,2.97222222 43.0277778,4.09722222 41.25,5.13888889 C39.4722222,6.18055556 37.2222222,7.19444444 35.3611111,6.29166667 C34.3611111,5.80555556 33.75,4.88888889 33.0277778,4.09722222 C32.3055556,3.30555556 31.2777778,2.58333333 30.1666667,2.73611111 C27.9027778,3.05555556 26.9444444,6.38888889 24.8194444,7.34722222 C23.8611111,7.77777778 22.7916667,7.90277778 21.7638889,7.56944444 C20.8055556,7.25 20.0416667,6.59722222 19.1944444,6.09722222 C18.3472222,5.59722222 17.2638889,5.23611111 16.3194444,5.58333333 C16.0694444,5.68055556 15.8333333,5.81944444 15.6111111,5.97222222 C14.875,6.43055556 14.1111111,7.125 13.3055556,7.45833333 C12.5972222,7.73611111 11.7222222,7.77777778 10.9583333,7.65277778 C9.375,7.40277778 7.95833333,6.48611111 6.91666667,5.38888889 C3.27777778,1.59722222 2.47222222,3.77777778 2.22222222,5.875 C2.11111111,6.81944444 0.847222222,10.625 1.26388889,15.3888889 C1.52777778,18.4444444 2,22.75 2.375,26.1527778 C3.38888889,35.5277778 3.31944444,44.7638889 4.20833333,54.1388889 C4.72222222,59.5416667 7.70833333,58.8472222 12.9444444,58.75 C14.5555556,58.7222222 16.9583333,58.3055556 22.0972222,58.3611111 C24.4166667,58.3888889 29.4583333,57.9444444 32.0833333,57.9722222 C35.9027778,58.0138889 40.75,58.3194444 44.5694444,58.3611111 C50.2916667,58.4166667 51.9722222,58.6111111 55.5138889,58.6111111 C57.6388889,58.6111111 59.1666667,57.0833333 59.1388889,54.8888889 C59.0694444,52.2083333 59.2222222,49.5277778 59.4444444,46.8333333 Z M55.4583333,55.5138889 C53.8333333,55.7777778 49.7083333,56.4722222 46.8194444,56.3194444 C43.0138889,56.1111111 39.4166667,55.3333333 37.3194444,55.5138889 C35.7361111,55.6527778 31.3194444,55.375 26.9583333,55.9166667 C24.6805556,56.1944444 21.875,55.6805556 19.6666667,55.9305556 C15.9861111,56.3611111 12.7916667,56.6944444 11.4027778,56.7087217 C8.45833333,56.75 7.23611111,53.4305556 6.91666667,50.7361111 C6.16666667,44.5 5.51388889,31.4166667 4.68055556,24.7083333 C4.36111111,22.0833333 3.45833333,14.9166667 3.20833333,12.2916667 C2.91666667,9.18055556 4.09722222,8.61111111 5.51388889,8.54166667 C6.76388889,9.70833333 8.44444444,10.75 10.5,10.7777778 L10.5,10.7777778 L10.5,10.7777778 C10.75,10.7777778 11,10.7638889 11.25,10.7361111 C11.3055556,10.7361111 11.375,10.7222222 11.4305556,10.7083333 C11.5416667,10.6944444 11.6388889,10.6805556 11.75,10.6527778 C11.8472222,10.6388889 11.9305556,10.6111111 12.0277778,10.5972222 C12.125,10.5694444 12.2083333,10.5555556 12.3055556,10.5277778 C12.4861111,10.4722222 12.6666667,10.4166667 12.8472222,10.3611111 C12.9166667,10.3333333 12.9861111,10.3055556 13.0555556,10.2777778 C13.1944444,10.2222222 13.3472222,10.1527778 13.5,10.0972222 C13.5694444,10.0694444 13.625,10.0416667 13.6944444,10 C13.9027778,9.90277778 14.1111111,9.79166667 14.3333333,9.66666667 C14.4305556,9.61111111 14.5,9.54166667 14.5833333,9.47222222 C14.8611111,9.25 15.0972222,8.95833333 15.3194444,8.65277778 C15.5138889,8.38888889 15.7222222,8.11111111 15.9444444,7.88888889 L15.9583333,7.875 C16.3333333,7.51388889 16.8194444,7.375 17.2916667,7.41666667 C17.7638889,7.47222222 18.2222222,7.72222222 18.5416667,8.13888889 C18.75,8.41666667 18.9722222,8.69444444 19.1805556,8.95833333 L19.1944444,8.97222222 C19.4166667,9.23611111 19.6388889,9.47222222 19.8611111,9.70833333 L19.875,9.72222222 C20.0972222,9.95833333 20.3333333,10.1805556 20.5694444,10.375 C20.5694444,10.375 20.5694444,10.375 20.5833333,10.3888889 C20.8194444,10.5972222 21.0694444,10.7777778 21.3194444,10.9583333 L21.3194444,10.9583333 C22.4027778,11.6944444 23.6111111,12.1111111 25.0138889,12.0277778 C26.5277778,11.9444444 27.875,10.9444444 28.5416667,9.51388889 C28.9722222,8.58333333 29.4166667,7.63888889 29.875,6.72222222 C30.25,5.97222222 31.4027778,5.94444444 31.8611111,6.65277778 C32.2083333,7.20833333 32.4583333,7.83333333 32.7777778,8.41666667 C33.0138889,8.84722222 33.2777778,9.25 33.5555556,9.61111111 C33.5694444,9.625 33.5833333,9.65277778 33.5972222,9.66666667 C33.7361111,9.84722222 33.875,10.0138889 34.0138889,10.1666667 C34.0416667,10.1944444 34.0555556,10.2222222 34.0833333,10.25 C34.2222222,10.4027778 34.3611111,10.5416667 34.5,10.6666667 C34.5277778,10.6944444 34.5694444,10.7361111 34.5972222,10.7638889 C34.7361111,10.8888889 34.8611111,11 35,11.1111111 C35.0416667,11.1388889 35.0833333,11.1805556 35.125,11.2083333 C35.2638889,11.3055556 35.3888889,11.4027778 35.5277778,11.4861111 C35.5833333,11.5138889 35.6388889,11.5555556 35.6805556,11.5833333 C35.8194444,11.6666667 35.9444444,11.7361111 36.0833333,11.8055556 C36.1388889,11.8333333 36.2083333,11.8611111 36.2638889,11.8888889 C36.4027778,11.9444444 36.5277778,12 36.6666667,12.0555556 C36.7361111,12.0833333 36.8055556,12.1111111 36.875,12.125 C37,12.1666667 37.1388889,12.2083333 37.2638889,12.2361111 C37.3472222,12.25 37.4166667,12.2638889 37.5,12.2916667 C37.625,12.3194444 37.75,12.3333333 37.8888889,12.3611111 C37.9722222,12.375 38.0694444,12.375 38.1527778,12.3888889 C38.2777778,12.4027778 38.4027778,12.4027778 38.5277778,12.4027778 C38.625,12.4027778 38.7222222,12.4027778 38.8194444,12.3888889 C38.9444444,12.3888889 39.0555556,12.375 39.1805556,12.375 C39.2916667,12.3611111 39.3888889,12.3472222 39.5,12.3333333 C39.6111111,12.3194444 39.7361111,12.3055556 39.8472222,12.2777778 C39.9583333,12.25 40.0833333,12.2222222 40.1944444,12.1944444 C40.3055556,12.1666667 40.4166667,12.1388889 40.5277778,12.1111111 C40.6527778,12.0694444 40.7916667,12.0277778 40.9166667,11.9722222 C41.0138889,11.9305556 41.125,11.9027778 41.2222222,11.8611111 C41.375,11.8055556 41.5277778,11.7222222 41.6805556,11.6527778 C41.7638889,11.6111111 41.8472222,11.5833333 41.9305556,11.5416667 C42.1666667,11.4166667 42.4027778,11.2916667 42.6527778,11.1388889 C43.4722222,10.6388889 44.2638889,10.0972222 45.0416667,9.56944444 C45.0833333,9.54166667 45.125,9.52777778 45.1666667,9.5 C45.9861111,9.01388889 47.0416667,9 47.875,9.48611111 C48.2777778,9.72222222 48.625,9.90277778 48.9444444,10.0555556 C49.0277778,10.0972222 49.1111111,10.125 49.1805556,10.1666667 C49.3194444,10.2222222 49.4444444,10.2638889 49.5694444,10.3055556 C49.6944444,10.3472222 49.8194444,10.3888889 49.9444444,10.4027778 C50.1805556,10.4583333 50.4027778,10.4722222 50.625,10.4722222 C50.9305556,10.4583333 51.2361111,10.4027778 51.5833333,10.3055556 C52.1527778,10.125 52.8194444,9.81944444 53.6944444,9.38888889 C53.8194444,9.41666667 53.9444444,9.44444444 54.0555556,9.48611111 C54.0833333,9.5 54.125,9.5 54.1527778,9.51388889 C54.1944444,9.52777778 54.2361111,9.54166667 54.2777778,9.55555556 C54.375,9.58333333 54.4722222,9.61111111 54.5694444,9.65277778 C54.5833333,9.65277778 54.5972222,9.66666667 54.5972222,9.66666667 C54.8472222,9.76388889 55.0555556,9.86111111 55.25,9.98611111 C55.4861111,10.125 55.6805556,10.2916667 55.8472222,10.4722222 L55.8472222,10.4722222 C55.9305556,10.5694444 56,10.6666667 56.0694444,10.7638889 L56.0694444,10.7638889 C56.3333333,11.1666667 56.4861111,11.6388889 56.5555556,12.1805556 C56.5555556,12.2083333 56.5555556,12.2222222 56.5694444,12.25 C56.5833333,12.3611111 56.5972222,12.4722222 56.6111111,12.5833333 C56.6111111,12.6111111 56.6111111,12.6527778 56.625,12.6805556 C56.6388889,12.7916667 56.6388889,12.9027778 56.6388889,13.0138889 C56.6388889,13.0416667 56.6388889,13.0833333 56.6388889,13.1111111 C56.6388889,13.2638889 56.6388889,13.4027778 56.6388889,13.5555556 C56.6388889,14.9583333 56.8888889,18.0138889 56.5833333,21.0555556 C56.3472222,23.4166667 56.1805556,25.7638889 56.3611111,27.3055556 C56.375,27.4722222 56.4027778,27.6388889 56.4305556,27.8333333 C56.4305556,27.8472222 56.4305556,27.8611111 56.4305556,27.875 C56.4583333,28.0416667 56.4722222,28.2222222 56.5,28.4166667 L56.5,28.4305556 L56.5,28.4305556 C57.2777778,34.5 56.6111111,45.9027778 57,50.2083333 L57,50.2361111 C57.2222222,52.1805556 57.5416667,55.1805556 55.4583333,55.5138889 Z"
        id="Shape"
      />
      <path
        fill="#BE5A07"
        d="M44.3194444,24.1805556 C43.3472222,24.2638889 42.3611111,24.3333333 41.3888889,24.3333333 C40.2916667,24.3333333 39.3055556,24.2083333 38.25,23.9861111 C37.2916667,23.7916667 36.2083333,23.9444444 35.2222222,23.9861111 C33.0555556,24.0694444 30.875,24.1388889 28.7083333,24.2361111 C24.1805556,24.4166667 19.6527778,24.6527778 15.1388889,24.9166667 C5.30555556,25.5 7.40277778,27.1944444 14.4583333,27.1666667 C21.5138889,27.1388889 33.8194444,27 43.9722222,26.8194444 C46.8055556,26.7638889 49.5972222,26.375 52.4166667,26.0416667 C52.4722222,25.3888889 52.4583333,24.625 51.9027778,24.2222222 C51.6944444,24.0694444 51.4305556,24 51.1666667,23.9444444 C50.2083333,23.7361111 49.2083333,23.7638889 48.2222222,23.8333333 C46.9166667,23.9166667 45.625,24.0694444 44.3194444,24.1805556 Z"
        id="Path"
      />
    </g>
  </g>
  <g id="Group" transform="translate(8.333333, 94.444444)">
    <polygon
      fill="#BE5A07"
      id="Path"
      points="0.722222222 1.59722222 1.47222222 1.59722222 1.47222222 3.80555556 1.80555556 3.80555556 1.80555556 1.59722222 2.54166667 1.59722222 2.54166667 1.29166667 0.722222222 1.29166667"
    />
    <polygon
      fill="#BE5A07"
      id="Path"
      points="4.125 3.09722222 3.33333333 1.29166667 2.90277778 1.29166667 2.90277778 3.80555556 3.22222222 3.80555556 3.22222222 1.77777778 3.95833333 3.45833333 4.27777778 3.45833333 5.01388889 1.77777778 5.01388889 3.80555556 5.33333333 3.80555556 5.33333333 1.29166667 4.90277778 1.29166667"
    />
  </g>
</svg>